<svg id="visual" viewBox="0 0 900 450" width="900" height="450" xmlns="http://www.w3.org/2000/svg"
    xmlns:xlink="http://www.w3.org/1999/xlink" version="1.1">
    <rect x="0" y="0" width="900" height="450" fill="#001122"></rect>
    <g transform="translate(451.2349233538364 238.23689836078586)">
        <path
            d="M110.4 -154.3C143.2 -128.1 170 -96 178.7 -60.2C187.4 -24.4 177.8 15.1 163.5 51.2C149.1 87.2 129.8 119.6 101.7 140.5C73.7 161.4 36.8 170.7 2.3 167.6C-32.3 164.5 -64.7 149 -100.3 130.6C-136 112.2 -175 90.8 -182.9 60.8C-190.8 30.7 -167.7 -8.1 -145.8 -38.7C-123.9 -69.2 -103.3 -91.5 -79.2 -120.5C-55.1 -149.5 -27.6 -185.3 5.6 -193C38.8 -200.7 77.6 -180.5 110.4 -154.3"
            fill="#0038ba"></path>
    </g>
</svg>