<svg version="1.1" id="Layer_1" xmlns="http://www.w3.org/2000/svg" xmlns:xlink="http://www.w3.org/1999/xlink" x="0px"
    y="0px" viewBox="0 0 100 100" style="enable-background:new 0 0 504 504;" xml:space="preserve" width="200"
    height="200">
    <path style="fill:#324A5E;" cx="252" cy="252" r="252"
        d="M100 50a50 50 0 0 1 -50 50A50 50 0 0 1 0 50a50 50 0 0 1 100 0z" />
    <path x="101.192" y="140.022" transform="rotate(153.779 251.942 223.722)" style="fill:#4CDBC4;" width="301.496"
        height="167.398" d="M20.078 27.782h59.82v33.214h-59.82V27.782z" />
    <path style="fill:#E6E9EE;"
        d="M31.508 66.845 20.933 45.357a1.224 1.224 0 0 0 0.556 -1.647l45.357 -22.341a1.224 1.224 0 0 0 1.647 0.556l10.575 21.488a1.224 1.224 0 0 0 -0.556 1.647L33.155 67.401a1.242 1.242 0 0 0 -1.647 -0.556z" />
    <path style="fill:#4CDBC4;" cx="252" cy="223.7" r="52.9"
        d="M60.496 44.385A10.496 10.496 0 0 1 50 54.881a10.496 10.496 0 0 1 -10.496 -10.496 10.496 10.496 0 0 1 20.992 0z" />
    <path style="fill:#FFFFFF;"
        d="m52.46 50.119 -0.476 -0.972c-1.29 0.476 -2.639 0.536 -4.028 0.159l0.397 -1.647c1.071 0.278 2.044 0.298 2.897 0.02l-1.29 -2.619c-1.131 0.258 -2.024 0.298 -2.698 0.139 -0.675 -0.159 -1.19 -0.635 -1.567 -1.409s-0.417 -1.548 -0.119 -2.302 0.873 -1.369 1.726 -1.845l-0.337 -0.675 0.853 -0.417 0.337 0.694c1.032 -0.417 2.123 -0.536 3.294 -0.377l-0.258 1.667a4.74 4.74 0 0 0 -2.302 0.159l1.25 2.52 0.04 -0.02c1.151 -0.258 2.063 -0.317 2.758 -0.139 0.694 0.179 1.23 0.655 1.607 1.448s0.417 1.567 0.119 2.321c-0.317 0.774 -0.913 1.389 -1.806 1.885l0.476 0.972 -0.873 0.437zm-5.238 -8.214a1.05 1.05 0 0 0 0.02 0.913c0.139 0.298 0.357 0.496 0.615 0.575s0.694 0.079 1.27 0l-1.151 -2.321c-0.357 0.238 -0.615 0.516 -0.754 0.833zm5.734 4.504c0.159 -0.337 0.139 -0.655 0 -0.972 -0.159 -0.317 -0.377 -0.516 -0.655 -0.595s-0.734 -0.079 -1.349 0.02l1.19 2.421c0.397 -0.258 0.675 -0.556 0.813 -0.873z" />
    <g>
        <path style="fill:#4CDBC4;" cx="334.5" cy="183.1" r="17.5"
            d="M69.841 36.329a3.472 3.472 0 0 1 -3.472 3.473 3.472 3.472 0 0 1 -3.472 -3.473 3.472 3.472 0 0 1 6.944 0z" />
        <path style="fill:#4CDBC4;" cx="169.5" cy="264.3" r="17.5"
            d="M37.103 52.44a3.472 3.472 0 0 1 -3.472 3.473 3.472 3.472 0 0 1 -3.472 -3.473 3.472 3.472 0 0 1 6.944 0z" />
    </g>
    <path style="fill:#FFD05B;"
        d="M70 83.73H25.556a0.44 0.44 0 0 1 -0.437 -0.437V50a0.44 0.44 0 0 1 0.437 -0.437H70a0.44 0.44 0 0 1 0.437 0.437v33.294a0.44 0.44 0 0 1 -0.437 0.437z" />
    <g>
        <path style="fill:#F9B54C;"
            d="M27.976 81.845h-0.714a0.284 0.284 0 0 1 -0.278 -0.278v-0.714c0 -0.139 0.119 -0.278 0.278 -0.278 0.139 0 0.278 0.119 0.278 0.278v0.456h0.456c0.139 0 0.278 0.119 0.278 0.278a0.3 0.3 0 0 1 -0.298 0.258z" />
        <path style="fill:#F9B54C;"
            d="M27.262 79.623a0.284 0.284 0 0 1 -0.278 -0.278v-1.488c0 -0.139 0.119 -0.278 0.278 -0.278 0.139 0 0.278 0.119 0.278 0.278v1.488a0.271 0.271 0 0 1 -0.278 0.278zm0 -2.976a0.284 0.284 0 0 1 -0.278 -0.278v-1.488c0 -0.139 0.119 -0.278 0.278 -0.278 0.139 0 0.278 0.119 0.278 0.278v1.488a0.284 0.284 0 0 1 -0.278 0.278zm0 -2.996a0.284 0.284 0 0 1 -0.278 -0.278v-1.488c0 -0.139 0.119 -0.278 0.278 -0.278 0.139 0 0.278 0.119 0.278 0.278v1.488a0.271 0.271 0 0 1 -0.278 0.278zm0 -2.996a0.284 0.284 0 0 1 -0.278 -0.278v-1.488c0 -0.139 0.119 -0.278 0.278 -0.278 0.139 0 0.278 0.119 0.278 0.278v1.488a0.271 0.271 0 0 1 -0.278 0.278zm0 -2.996a0.284 0.284 0 0 1 -0.278 -0.278v-1.488c0 -0.139 0.119 -0.278 0.278 -0.278 0.139 0 0.278 0.119 0.278 0.278v1.488a0.271 0.271 0 0 1 -0.278 0.278zm0 -2.996a0.284 0.284 0 0 1 -0.278 -0.278v-1.488c0 -0.139 0.119 -0.278 0.278 -0.278 0.139 0 0.278 0.119 0.278 0.278v1.488a0.271 0.271 0 0 1 -0.278 0.278zm0 -2.996a0.284 0.284 0 0 1 -0.278 -0.278v-1.488c0 -0.139 0.119 -0.278 0.278 -0.278 0.139 0 0.278 0.119 0.278 0.278v1.488a0.271 0.271 0 0 1 -0.278 0.278zm0 -2.996a0.284 0.284 0 0 1 -0.278 -0.278v-1.488c0 -0.139 0.119 -0.278 0.278 -0.278 0.139 0 0.278 0.119 0.278 0.278v1.488a0.271 0.271 0 0 1 -0.278 0.278zm0 -2.996a0.284 0.284 0 0 1 -0.278 -0.278v-1.488c0 -0.139 0.119 -0.278 0.278 -0.278 0.139 0 0.278 0.119 0.278 0.278v1.488a0.271 0.271 0 0 1 -0.278 0.278z" />
        <path style="fill:#F9B54C;"
            d="M27.262 52.679a0.284 0.284 0 0 1 -0.278 -0.278v-0.714c0 -0.139 0.119 -0.278 0.278 -0.278h0.714c0.139 0 0.278 0.119 0.278 0.278a0.284 0.284 0 0 1 -0.278 0.278h-0.456v0.456c0.02 0.139 -0.099 0.258 -0.258 0.258z" />
        <path style="fill:#F9B54C;"
            d="M66.111 51.964h-1.468a0.284 0.284 0 0 1 -0.278 -0.278c0 -0.139 0.119 -0.278 0.278 -0.278h1.468c0.139 0 0.278 0.119 0.278 0.278 -0.02 0.159 -0.139 0.278 -0.278 0.278zm-2.937 0h-1.468a0.284 0.284 0 0 1 -0.278 -0.278c0 -0.139 0.119 -0.278 0.278 -0.278h1.468c0.139 0 0.278 0.119 0.278 0.278 -0.02 0.159 -0.139 0.278 -0.278 0.278zm-2.937 0h-1.468a0.284 0.284 0 0 1 -0.278 -0.278c0 -0.139 0.119 -0.278 0.278 -0.278h1.468c0.139 0 0.278 0.119 0.278 0.278s-0.119 0.278 -0.278 0.278zm-2.937 0h-1.468a0.284 0.284 0 0 1 -0.278 -0.278c0 -0.139 0.119 -0.278 0.278 -0.278H57.3c0.139 0 0.278 0.119 0.278 0.278a0.271 0.271 0 0 1 -0.278 0.278zm-2.917 0h-1.468a0.284 0.284 0 0 1 -0.278 -0.278c0 -0.139 0.119 -0.278 0.278 -0.278h1.468c0.139 0 0.278 0.119 0.278 0.278 -0.02 0.159 -0.139 0.278 -0.278 0.278zm-2.937 0h-1.468a0.284 0.284 0 0 1 -0.278 -0.278c0 -0.139 0.119 -0.278 0.278 -0.278h1.468c0.139 0 0.278 0.119 0.278 0.278 -0.02 0.159 -0.139 0.278 -0.278 0.278zm-2.937 0h-1.468a0.284 0.284 0 0 1 -0.278 -0.278c0 -0.139 0.119 -0.278 0.278 -0.278h1.468c0.139 0 0.278 0.119 0.278 0.278 -0.02 0.159 -0.139 0.278 -0.278 0.278zm-2.937 0h-1.468a0.284 0.284 0 0 1 -0.278 -0.278c0 -0.139 0.119 -0.278 0.278 -0.278h1.468c0.139 0 0.278 0.119 0.278 0.278a0.271 0.271 0 0 1 -0.278 0.278zm-2.937 0h-1.468a0.284 0.284 0 0 1 -0.278 -0.278c0 -0.139 0.119 -0.278 0.278 -0.278h1.468c0.139 0 0.278 0.119 0.278 0.278a0.271 0.271 0 0 1 -0.278 0.278zm-2.917 0H38.25a0.284 0.284 0 0 1 -0.278 -0.278c0 -0.139 0.119 -0.278 0.278 -0.278h1.468c0.139 0 0.278 0.119 0.278 0.278 -0.02 0.159 -0.139 0.278 -0.278 0.278zm-2.937 0h-1.464a0.284 0.284 0 0 1 -0.278 -0.278c0 -0.139 0.119 -0.278 0.278 -0.278h1.468c0.139 0 0.278 0.119 0.278 0.278 -0.02 0.159 -0.139 0.278 -0.278 0.278zm-2.937 0h-1.468a0.284 0.284 0 0 1 -0.278 -0.278c0 -0.139 0.119 -0.278 0.278 -0.278h1.468c0.139 0 0.278 0.119 0.278 0.278 -0.02 0.159 -0.139 0.278 -0.278 0.278zm-2.937 0h-1.468a0.284 0.284 0 0 1 -0.278 -0.278c0 -0.139 0.119 -0.278 0.278 -0.278h1.468c0.139 0 0.278 0.119 0.278 0.278s-0.119 0.278 -0.278 0.278z" />
        <path style="fill:#F9B54C;"
            d="M68.294 52.679a0.284 0.284 0 0 1 -0.278 -0.278v-0.456h-0.456a0.284 0.284 0 0 1 -0.278 -0.278c0 -0.139 0.119 -0.278 0.278 -0.278h0.714c0.139 0 0.278 0.119 0.278 0.278v0.714c0 0.179 -0.119 0.298 -0.258 0.298z" />
        <path style="fill:#F9B54C;"
            d="M68.294 79.623a0.284 0.284 0 0 1 -0.278 -0.278v-1.488c0 -0.139 0.119 -0.278 0.278 -0.278 0.139 0 0.278 0.119 0.278 0.278v1.488c-0.02 0.159 -0.139 0.278 -0.278 0.278zm0 -2.976a0.284 0.284 0 0 1 -0.278 -0.278v-1.488c0 -0.139 0.119 -0.278 0.278 -0.278 0.139 0 0.278 0.119 0.278 0.278v1.488c-0.02 0.139 -0.139 0.278 -0.278 0.278zm0 -2.996a0.284 0.284 0 0 1 -0.278 -0.278v-1.488c0 -0.139 0.119 -0.278 0.278 -0.278 0.139 0 0.278 0.119 0.278 0.278v1.488c-0.02 0.159 -0.139 0.278 -0.278 0.278zm0 -2.996a0.284 0.284 0 0 1 -0.278 -0.278v-1.488c0 -0.139 0.119 -0.278 0.278 -0.278 0.139 0 0.278 0.119 0.278 0.278v1.488c-0.02 0.159 -0.139 0.278 -0.278 0.278zm0 -2.996a0.284 0.284 0 0 1 -0.278 -0.278v-1.488c0 -0.139 0.119 -0.278 0.278 -0.278 0.139 0 0.278 0.119 0.278 0.278v1.488c-0.02 0.159 -0.139 0.278 -0.278 0.278zm0 -2.996a0.284 0.284 0 0 1 -0.278 -0.278v-1.488c0 -0.139 0.119 -0.278 0.278 -0.278 0.139 0 0.278 0.119 0.278 0.278v1.488c-0.02 0.159 -0.139 0.278 -0.278 0.278zm0 -2.996a0.284 0.284 0 0 1 -0.278 -0.278v-1.488c0 -0.139 0.119 -0.278 0.278 -0.278 0.139 0 0.278 0.119 0.278 0.278v1.488c-0.02 0.159 -0.139 0.278 -0.278 0.278zm0 -2.996a0.284 0.284 0 0 1 -0.278 -0.278v-1.488c0 -0.139 0.119 -0.278 0.278 -0.278 0.139 0 0.278 0.119 0.278 0.278v1.488c-0.02 0.159 -0.139 0.278 -0.278 0.278zm0 -2.996a0.284 0.284 0 0 1 -0.278 -0.278v-1.488c0 -0.139 0.119 -0.278 0.278 -0.278 0.139 0 0.278 0.119 0.278 0.278v1.488c-0.02 0.159 -0.139 0.278 -0.278 0.278z" />
        <path style="fill:#F9B54C;"
            d="M68.294 81.845h-0.714a0.284 0.284 0 0 1 -0.278 -0.278c0 -0.139 0.119 -0.278 0.278 -0.278h0.456v-0.456c0 -0.139 0.119 -0.278 0.278 -0.278 0.139 0 0.278 0.119 0.278 0.278v0.714c-0.04 0.179 -0.159 0.298 -0.298 0.298z" />
        <path style="fill:#F9B54C;"
            d="M66.111 81.845h-1.468a0.284 0.284 0 0 1 -0.278 -0.278c0 -0.139 0.119 -0.278 0.278 -0.278h1.468c0.139 0 0.278 0.119 0.278 0.278 -0.02 0.159 -0.139 0.278 -0.278 0.278zm-2.937 0h-1.468a0.284 0.284 0 0 1 -0.278 -0.278c0 -0.139 0.119 -0.278 0.278 -0.278h1.468c0.139 0 0.278 0.119 0.278 0.278 -0.02 0.159 -0.139 0.278 -0.278 0.278zm-2.937 0h-1.468a0.284 0.284 0 0 1 -0.278 -0.278c0 -0.139 0.119 -0.278 0.278 -0.278h1.468c0.139 0 0.278 0.119 0.278 0.278s-0.119 0.278 -0.278 0.278zm-2.937 0h-1.468a0.284 0.284 0 0 1 -0.278 -0.278c0 -0.139 0.119 -0.278 0.278 -0.278H57.3c0.139 0 0.278 0.119 0.278 0.278a0.271 0.271 0 0 1 -0.278 0.278zm-2.917 0h-1.468a0.284 0.284 0 0 1 -0.278 -0.278c0 -0.139 0.119 -0.278 0.278 -0.278h1.468c0.139 0 0.278 0.119 0.278 0.278 -0.02 0.159 -0.139 0.278 -0.278 0.278zm-2.937 0h-1.468a0.284 0.284 0 0 1 -0.278 -0.278c0 -0.139 0.119 -0.278 0.278 -0.278h1.468c0.139 0 0.278 0.119 0.278 0.278 -0.02 0.159 -0.139 0.278 -0.278 0.278zm-2.937 0h-1.468a0.284 0.284 0 0 1 -0.278 -0.278c0 -0.139 0.119 -0.278 0.278 -0.278h1.468c0.139 0 0.278 0.119 0.278 0.278 -0.02 0.159 -0.139 0.278 -0.278 0.278zm-2.937 0h-1.468a0.284 0.284 0 0 1 -0.278 -0.278c0 -0.139 0.119 -0.278 0.278 -0.278h1.468c0.139 0 0.278 0.119 0.278 0.278a0.271 0.271 0 0 1 -0.278 0.278zm-2.937 0h-1.468a0.284 0.284 0 0 1 -0.278 -0.278c0 -0.139 0.119 -0.278 0.278 -0.278h1.468c0.139 0 0.278 0.119 0.278 0.278a0.271 0.271 0 0 1 -0.278 0.278zm-2.917 0H38.25a0.284 0.284 0 0 1 -0.278 -0.278c0 -0.139 0.119 -0.278 0.278 -0.278h1.468c0.139 0 0.278 0.119 0.278 0.278 -0.02 0.159 -0.139 0.278 -0.278 0.278zm-2.937 0h-1.464a0.284 0.284 0 0 1 -0.278 -0.278c0 -0.139 0.119 -0.278 0.278 -0.278h1.468c0.139 0 0.278 0.119 0.278 0.278 -0.02 0.159 -0.139 0.278 -0.278 0.278zm-2.937 0h-1.468a0.284 0.284 0 0 1 -0.278 -0.278c0 -0.139 0.119 -0.278 0.278 -0.278h1.468c0.139 0 0.278 0.119 0.278 0.278 -0.02 0.159 -0.139 0.278 -0.278 0.278zm-2.937 0h-1.468a0.284 0.284 0 0 1 -0.278 -0.278c0 -0.139 0.119 -0.278 0.278 -0.278h1.468c0.139 0 0.278 0.119 0.278 0.278s-0.119 0.278 -0.278 0.278z" />
    </g>
    <path style="fill:#FF7058;"
        d="M55.258 72.143h16.667V61.111H55.258c-0.119 0 -0.198 0.079 -0.198 0.198v10.635c0 0.119 0.099 0.198 0.198 0.198z" />
    <path style="fill:#CED5E0;" cx="301.5" cy="335.9" r="12.6"
        d="M62.321 66.647a2.5 2.5 0 0 1 -2.5 2.5 2.5 2.5 0 0 1 -2.5 -2.5 2.5 2.5 0 0 1 5 0z" />
    <path style="fill:#E6E9EE;" d="M58.056 64.881a2.504 2.504 0 0 0 0 3.532l3.532 -3.532a2.468 2.468 0 0 0 -3.532 0z" />
</svg>