<svg id="visual" viewBox="0 0 900 600" width="900" height="600" xmlns="http://www.w3.org/2000/svg"
    xmlns:xlink="http://www.w3.org/1999/xlink" version="1.1">
    <path
        d="M0 73L10.7 82C21.3 91 42.7 109 64.2 120C85.7 131 107.3 135 128.8 127C150.3 119 171.7 99 193 84C214.3 69 235.7 59 257 65C278.3 71 299.7 93 321.2 97C342.7 101 364.3 87 385.8 83C407.3 79 428.7 85 450 90C471.3 95 492.7 99 514.2 101C535.7 103 557.3 103 578.8 105C600.3 107 621.7 111 643 119C664.3 127 685.7 139 707 131C728.3 123 749.7 95 771.2 79C792.7 63 814.3 59 835.8 57C857.3 55 878.7 55 889.3 55L900 55L900 0L889.3 0C878.7 0 857.3 0 835.8 0C814.3 0 792.7 0 771.2 0C749.7 0 728.3 0 707 0C685.7 0 664.3 0 643 0C621.7 0 600.3 0 578.8 0C557.3 0 535.7 0 514.2 0C492.7 0 471.3 0 450 0C428.7 0 407.3 0 385.8 0C364.3 0 342.7 0 321.2 0C299.7 0 278.3 0 257 0C235.7 0 214.3 0 193 0C171.7 0 150.3 0 128.8 0C107.3 0 85.7 0 64.2 0C42.7 0 21.3 0 10.7 0L0 0Z"
        fill="#ff0066"></path>
    <path
        d="M0 91L10.7 106C21.3 121 42.7 151 64.2 167C85.7 183 107.3 185 128.8 179C150.3 173 171.7 159 193 141C214.3 123 235.7 101 257 99C278.3 97 299.7 115 321.2 118C342.7 121 364.3 109 385.8 113C407.3 117 428.7 137 450 147C471.3 157 492.7 157 514.2 160C535.7 163 557.3 169 578.8 170C600.3 171 621.7 167 643 174C664.3 181 685.7 199 707 196C728.3 193 749.7 169 771.2 152C792.7 135 814.3 125 835.8 122C857.3 119 878.7 123 889.3 125L900 127L900 53L889.3 53C878.7 53 857.3 53 835.8 55C814.3 57 792.7 61 771.2 77C749.7 93 728.3 121 707 129C685.7 137 664.3 125 643 117C621.7 109 600.3 105 578.8 103C557.3 101 535.7 101 514.2 99C492.7 97 471.3 93 450 88C428.7 83 407.3 77 385.8 81C364.3 85 342.7 99 321.2 95C299.7 91 278.3 69 257 63C235.7 57 214.3 67 193 82C171.7 97 150.3 117 128.8 125C107.3 133 85.7 129 64.2 118C42.7 107 21.3 89 10.7 80L0 71Z"
        fill="#ff6346"></path>
    <path
        d="M0 193L10.7 205C21.3 217 42.7 241 64.2 247C85.7 253 107.3 241 128.8 235C150.3 229 171.7 229 193 219C214.3 209 235.7 189 257 184C278.3 179 299.7 189 321.2 183C342.7 177 364.3 155 385.8 158C407.3 161 428.7 189 450 207C471.3 225 492.7 233 514.2 243C535.7 253 557.3 265 578.8 260C600.3 255 621.7 233 643 232C664.3 231 685.7 251 707 249C728.3 247 749.7 223 771.2 214C792.7 205 814.3 211 835.8 210C857.3 209 878.7 201 889.3 197L900 193L900 125L889.3 123C878.7 121 857.3 117 835.8 120C814.3 123 792.7 133 771.2 150C749.7 167 728.3 191 707 194C685.7 197 664.3 179 643 172C621.7 165 600.3 169 578.8 168C557.3 167 535.7 161 514.2 158C492.7 155 471.3 155 450 145C428.7 135 407.3 115 385.8 111C364.3 107 342.7 119 321.2 116C299.7 113 278.3 95 257 97C235.7 99 214.3 121 193 139C171.7 157 150.3 171 128.8 177C107.3 183 85.7 181 64.2 165C42.7 149 21.3 119 10.7 104L0 89Z"
        fill="#ff9a3a"></path>
    <path
        d="M0 211L10.7 232C21.3 253 42.7 295 64.2 301C85.7 307 107.3 277 128.8 265C150.3 253 171.7 259 193 252C214.3 245 235.7 225 257 224C278.3 223 299.7 241 321.2 241C342.7 241 364.3 223 385.8 228C407.3 233 428.7 261 450 279C471.3 297 492.7 305 514.2 308C535.7 311 557.3 309 578.8 301C600.3 293 621.7 279 643 277C664.3 275 685.7 285 707 285C728.3 285 749.7 275 771.2 272C792.7 269 814.3 273 835.8 273C857.3 273 878.7 269 889.3 267L900 265L900 191L889.3 195C878.7 199 857.3 207 835.8 208C814.3 209 792.7 203 771.2 212C749.7 221 728.3 245 707 247C685.7 249 664.3 229 643 230C621.7 231 600.3 253 578.8 258C557.3 263 535.7 251 514.2 241C492.7 231 471.3 223 450 205C428.7 187 407.3 159 385.8 156C364.3 153 342.7 175 321.2 181C299.7 187 278.3 177 257 182C235.7 187 214.3 207 193 217C171.7 227 150.3 227 128.8 233C107.3 239 85.7 251 64.2 245C42.7 239 21.3 215 10.7 203L0 191Z"
        fill="#fcaf3c"></path>
    <path
        d="M0 403L10.7 405C21.3 407 42.7 411 64.2 402C85.7 393 107.3 371 128.8 366C150.3 361 171.7 373 193 369C214.3 365 235.7 345 257 350C278.3 355 299.7 385 321.2 378C342.7 371 364.3 327 385.8 328C407.3 329 428.7 375 450 405C471.3 435 492.7 449 514.2 437C535.7 425 557.3 387 578.8 366C600.3 345 621.7 341 643 364C664.3 387 685.7 437 707 451C728.3 465 749.7 443 771.2 439C792.7 435 814.3 449 835.8 446C857.3 443 878.7 423 889.3 413L900 403L900 263L889.3 265C878.7 267 857.3 271 835.8 271C814.3 271 792.7 267 771.2 270C749.7 273 728.3 283 707 283C685.7 283 664.3 273 643 275C621.7 277 600.3 291 578.8 299C557.3 307 535.7 309 514.2 306C492.7 303 471.3 295 450 277C428.7 259 407.3 231 385.8 226C364.3 221 342.7 239 321.2 239C299.7 239 278.3 221 257 222C235.7 223 214.3 243 193 250C171.7 257 150.3 251 128.8 263C107.3 275 85.7 305 64.2 299C42.7 293 21.3 251 10.7 230L0 209Z"
        fill="#ff9a3a"></path>
    <path
        d="M0 553L10.7 552C21.3 551 42.7 549 64.2 544C85.7 539 107.3 531 128.8 533C150.3 535 171.7 547 193 545C214.3 543 235.7 527 257 528C278.3 529 299.7 547 321.2 551C342.7 555 364.3 545 385.8 543C407.3 541 428.7 547 450 551C471.3 555 492.7 557 514.2 553C535.7 549 557.3 539 578.8 534C600.3 529 621.7 529 643 535C664.3 541 685.7 553 707 557C728.3 561 749.7 557 771.2 555C792.7 553 814.3 553 835.8 552C857.3 551 878.7 549 889.3 548L900 547L900 401L889.3 411C878.7 421 857.3 441 835.8 444C814.3 447 792.7 433 771.2 437C749.7 441 728.3 463 707 449C685.7 435 664.3 385 643 362C621.7 339 600.3 343 578.8 364C557.3 385 535.7 423 514.2 435C492.7 447 471.3 433 450 403C428.7 373 407.3 327 385.8 326C364.3 325 342.7 369 321.2 376C299.7 383 278.3 353 257 348C235.7 343 214.3 363 193 367C171.7 371 150.3 359 128.8 364C107.3 369 85.7 391 64.2 400C42.7 409 21.3 405 10.7 403L0 401Z"
        fill="#ff6346"></path>
    <path
        d="M0 601L10.7 601C21.3 601 42.7 601 64.2 601C85.7 601 107.3 601 128.8 601C150.3 601 171.7 601 193 601C214.3 601 235.7 601 257 601C278.3 601 299.7 601 321.2 601C342.7 601 364.3 601 385.8 601C407.3 601 428.7 601 450 601C471.3 601 492.7 601 514.2 601C535.7 601 557.3 601 578.8 601C600.3 601 621.7 601 643 601C664.3 601 685.7 601 707 601C728.3 601 749.7 601 771.2 601C792.7 601 814.3 601 835.8 601C857.3 601 878.7 601 889.3 601L900 601L900 545L889.3 546C878.7 547 857.3 549 835.8 550C814.3 551 792.7 551 771.2 553C749.7 555 728.3 559 707 555C685.7 551 664.3 539 643 533C621.7 527 600.3 527 578.8 532C557.3 537 535.7 547 514.2 551C492.7 555 471.3 553 450 549C428.7 545 407.3 539 385.8 541C364.3 543 342.7 553 321.2 549C299.7 545 278.3 527 257 526C235.7 525 214.3 541 193 543C171.7 545 150.3 533 128.8 531C107.3 529 85.7 537 64.2 542C42.7 547 21.3 549 10.7 550L0 551Z"
        fill="#ff0066"></path>
</svg>